<svg width="44" height="50" viewBox="0 0 44 50" fill="none" xmlns="http://www.w3.org/2000/svg">
<path d="M32 50H11.75C7.625 50 4.375 46.625 4.375 42.625V20C4.375 19.25 4.875 18.75 5.625 18.75C6.375 18.75 6.875 19.25 6.875 20V42.625C6.875 45.375 9.125 47.5 11.75 47.5H32C34.75 47.5 36.875 45.25 36.875 42.625V20C36.875 19.25 37.375 18.75 38.125 18.75C38.875 18.75 39.375 19.25 39.375 20V42.625C39.375 46.625 36 50 32 50Z" fill="black"/>
<path d="M38.625 6.125H29.125C28.5 2.625 25.5 0 21.875 0C18.25 0 15.25 2.625 14.625 6.125H5.125C2.25 6.125 0 8.375 0 11.25C0 14.125 2.25 16.25 5.125 16.25H38.75C41.625 16.25 43.875 14 43.875 11.125C43.875 8.25 41.5 6.125 38.625 6.125ZM21.875 2.5C24.125 2.5 26 4 26.5 6.125H17.125C17.75 4 19.625 2.5 21.875 2.5ZM38.625 13.75H5.125C3.75 13.75 2.5 12.625 2.5 11.125C2.5 9.75 3.625 8.5 5.125 8.5H38.75C40.125 8.5 41.375 9.625 41.375 11.125C41.25 12.625 40.125 13.75 38.625 13.75Z" fill="black"/>
<path d="M13.125 43.875C12.375 43.875 11.875 43.375 11.875 42.625V21.75C11.875 21 12.375 20.5 13.125 20.5C13.875 20.5 14.375 21 14.375 21.75V42.625C14.375 43.25 13.75 43.875 13.125 43.875Z" fill="black"/>
<path d="M30.625 43.875C29.875 43.875 29.375 43.375 29.375 42.625V21.75C29.375 21 29.875 20.5 30.625 20.5C31.375 20.5 31.875 21 31.875 21.75V42.625C31.875 43.25 31.25 43.875 30.625 43.875Z" fill="black"/>
<path d="M21.875 43.875C21.125 43.875 20.625 43.375 20.625 42.625V21.75C20.625 21 21.125 20.5 21.875 20.5C22.625 20.5 23.125 21 23.125 21.75V42.625C23.125 43.25 22.5 43.875 21.875 43.875Z" fill="black"/>
</svg>
