<svg width="50" height="50" viewBox="0 0 50 50" fill="none" xmlns="http://www.w3.org/2000/svg">
<path d="M45.2736 0H4.72637C2.11607 0 0 2.11607 0 4.72637V45.2736C0 47.8839 2.11607 50 4.72637 50H45.2736C47.8839 50 50 47.8839 50 45.2736V4.72637C50 2.11607 47.8839 0 45.2736 0Z" fill="#0077B5"/>
<path fill-rule="evenodd" clip-rule="evenodd" d="M9.70142 25.3731V40.2985H16.9153V24.1294V19.9005H9.70142V25.3731Z" fill="#FEFEFE"/>
<path fill-rule="evenodd" clip-rule="evenodd" d="M13.4328 9.70149C11.4427 9.70149 9.70142 11.4428 9.70142 13.4328C9.70142 15.1741 11.4427 16.9154 13.4328 16.9154C15.1741 16.9154 16.9153 15.1741 16.9153 13.4328C16.9153 11.4428 15.1741 9.70149 13.4328 9.70149Z" fill="#FEFEFE"/>
<path fill-rule="evenodd" clip-rule="evenodd" d="M40.0497 26.1194C39.5522 22.3881 37.8109 19.9005 32.587 19.9005C29.602 19.9005 27.6119 21.1443 26.6169 22.6368V19.9005H20.8955V23.8806V40.2985H26.8657V30.0995C26.8657 27.6119 27.3632 24.8756 30.597 24.8756C33.8308 24.8756 34.0796 28.1095 34.0796 30.3483V40.2985H40.2985V29.1045C40.2985 28.1095 40.2985 27.1144 40.0497 26.1194Z" fill="#FEFEFE"/>
</svg>
