<svg width="500" height="500" viewBox="0 0 500 500" fill="none" xmlns="http://www.w3.org/2000/svg">
<path d="M250 500C388.071 500 500 388.071 500 250C500 111.929 388.071 0 250 0C111.929 0 0 111.929 0 250C0 388.071 111.929 500 250 500Z" fill="#F1EA71" fill-opacity="0.125"/>
<path d="M123.916 34.15C123.916 34.15 -75.0217 153.079 31.3313 370.989C31.3313 370.989 86.5135 497.181 250 500C250 500 73.1787 428.448 56.3747 267.129C56.3747 267.129 36.4267 157.09 123.916 34.15Z" fill="#CFC761" fill-opacity="0.125"/>
<path d="M19.8396 183.326C19.8396 183.326 73.2871 180.291 104.076 250.65C104.076 250.65 147.658 408.716 301.388 362.641C301.388 362.641 442.433 309.085 340.2 134.866C340.2 134.866 312.337 97.1379 324.697 68.5169L339.657 28.0789" stroke="white" stroke-width="23.9535" stroke-miterlimit="10" stroke-linecap="round" stroke-linejoin="round"/>
</svg>
