<svg width="477" height="501" viewBox="0 0 477 501" fill="none" xmlns="http://www.w3.org/2000/svg">
<path opacity="0.15" d="M251.162 501C358.916 501 446.269 489.713 446.269 475.79C446.269 461.866 358.916 450.579 251.162 450.579C143.408 450.579 56.056 461.866 56.056 475.79C56.056 489.713 143.408 501 251.162 501Z" fill="#45413C"/>
<path d="M357.484 32.9643C353.1 30.7721 347.619 31.8682 345.427 36.2526C321.313 84.4811 315.832 145.863 335.562 207.245C355.292 268.626 395.848 315.759 442.98 339.873C447.365 342.065 452.845 339.873 455.037 335.489C478.056 283.972 483.536 223.686 464.902 164.497C446.269 106.403 406.809 60.3668 357.484 32.9643Z" fill="#9CEB60"/>
<path d="M474.767 209.437C442.98 153.536 390.367 110.788 326.793 93.2499C330.082 72.424 336.658 53.7902 345.427 36.2526C347.619 31.8682 353.1 30.7721 357.484 32.9643C406.809 61.4629 446.269 107.499 464.902 165.593C469.287 179.842 472.575 194.091 474.767 209.437Z" fill="#C8FFA1"/>
<path d="M357.484 32.9643C353.1 30.7721 347.619 31.8682 345.427 36.2526C321.313 84.4811 315.832 145.863 335.562 207.245C355.292 268.626 395.848 315.759 442.98 339.873C447.365 342.065 452.845 339.873 455.037 335.489C478.056 283.972 483.536 223.686 464.902 164.497C446.269 106.403 406.809 60.3668 357.484 32.9643Z" stroke="#45413C" stroke-width="1.0064" stroke-miterlimit="10" stroke-linecap="round" stroke-linejoin="round"/>
<path d="M310.352 31.8682C314.736 22.0033 309.256 11.0423 299.391 8.85005C256.643 -2.11097 211.703 -2.11097 166.762 12.1384C121.822 26.3877 84.5547 53.7903 56.0561 86.6733C49.4794 94.346 51.6716 106.403 60.4405 111.884C110.861 141.478 153.609 192.995 174.435 258.761C195.261 324.528 191.973 390.294 167.858 444.003C163.474 453.868 168.955 464.829 178.82 467.021C221.568 477.982 266.508 477.982 311.448 463.733C356.388 449.483 393.656 423.177 421.058 389.198C427.635 381.525 425.443 369.468 416.674 363.987C366.253 334.392 323.505 282.876 302.679 217.11C281.853 151.343 286.238 85.5772 310.352 31.8682Z" fill="#9CEB60"/>
<path d="M310.352 31.8682C302.679 49.4058 297.199 66.9435 293.91 86.6733C282.949 85.5772 273.084 84.4811 262.123 84.4811C200.742 84.4811 145.937 106.403 103.189 143.671C90.0353 131.614 75.786 120.653 61.5366 111.884C52.7678 106.403 50.5756 94.346 57.1522 86.6733C84.5548 52.6942 121.822 26.3877 166.762 12.1384C211.703 -2.11097 256.643 -2.11097 299.391 8.85005C309.256 11.0423 314.736 22.0033 310.352 31.8682Z" fill="#C8FFA1"/>
<path d="M310.352 31.8682C314.736 22.0033 309.256 11.0423 299.391 8.85005C256.643 -2.11097 211.703 -2.11097 166.762 12.1384C121.822 26.3877 84.5547 53.7903 56.0561 86.6733C49.4794 94.346 51.6716 106.403 60.4405 111.884C110.861 141.478 153.609 192.995 174.435 258.761C195.261 324.528 191.973 390.294 167.858 444.003C163.474 453.868 168.955 464.829 178.82 467.021C221.568 477.982 266.508 477.982 311.448 463.733C356.388 449.483 393.656 423.177 421.058 389.198C427.635 381.525 425.443 369.468 416.674 363.987C366.253 334.392 323.505 282.876 302.679 217.11C281.853 151.343 286.238 85.5772 310.352 31.8682Z" stroke="#45413C" stroke-width="1.0064" stroke-miterlimit="10" stroke-linecap="round" stroke-linejoin="round"/>
<path d="M34.134 137.094C29.7496 134.902 24.2691 137.094 22.0769 141.478C-0.941237 192.995 -6.42175 253.281 12.212 312.47C30.8457 370.564 70.3054 416.6 119.63 445.099C124.014 447.291 129.495 446.195 131.687 441.811C155.801 393.582 161.282 332.2 141.552 270.819C122.918 208.341 82.3625 161.208 34.134 137.094Z" fill="#9CEB60"/>
<path d="M77.9782 167.785C41.8068 209.437 18.7886 263.146 17.6925 323.431C16.5964 319.047 14.4042 315.759 13.3081 311.374C-5.32563 253.281 -0.941217 192.995 23.173 140.382C25.3652 135.998 30.8457 133.806 35.2302 135.998C49.4795 144.767 64.8249 154.632 77.9782 167.785Z" fill="#C8FFA1"/>
<path d="M34.134 137.094C29.7496 134.902 24.2691 137.094 22.0769 141.478C-0.941237 192.995 -6.42175 253.281 12.212 312.47C30.8457 370.564 70.3054 416.6 119.63 445.099C124.014 447.291 129.495 446.195 131.687 441.811C155.801 393.582 161.282 332.2 141.552 270.819C122.918 208.341 82.3625 161.208 34.134 137.094Z" stroke="#45413C" stroke-width="1.0064" stroke-miterlimit="10" stroke-linecap="round" stroke-linejoin="round"/>
<path d="M445.173 340.969C439.692 353.026 433.115 363.987 425.443 373.852C424.347 370.564 422.154 367.276 418.866 365.083C368.445 335.489 325.697 283.972 304.871 218.206C282.949 152.44 286.238 85.5773 310.352 31.8683C311.448 28.58 312.544 24.1956 311.448 20.9073C323.505 25.2917 335.562 29.6761 346.523 35.1566C322.409 83.3851 316.929 144.767 336.658 206.149C356.388 267.53 396.944 314.663 444.077 338.777C444.077 339.873 444.076 340.969 445.173 340.969Z" fill="#E0E0E0"/>
<path d="M345.427 35.1566C345.427 36.2527 345.427 36.2527 345.427 35.1566C336.658 51.5982 331.178 70.2319 326.793 89.9617C315.832 86.6734 304.871 84.4812 293.91 83.3851C297.199 64.7514 302.679 48.3099 310.352 31.8683C311.448 28.58 312.544 24.1956 311.448 20.9073C323.505 25.2917 334.466 29.6761 345.427 35.1566Z" fill="white"/>
<path d="M445.173 340.969C439.692 353.026 433.115 363.987 425.443 373.852C424.347 370.564 422.154 367.276 418.866 365.083C368.445 335.489 325.697 283.972 304.871 218.206C282.949 152.44 286.238 85.5773 310.352 31.8683C311.448 28.58 312.544 24.1956 311.448 20.9073C323.505 25.2917 335.562 29.6761 346.523 35.1566C322.409 83.3851 316.929 144.767 336.658 206.149C356.388 267.53 396.944 314.663 444.077 338.777C444.077 339.873 444.076 340.969 445.173 340.969Z" stroke="#45413C" stroke-width="1.0064" stroke-miterlimit="10" stroke-linecap="round" stroke-linejoin="round"/>
<path d="M167.858 445.099C166.762 448.387 165.666 452.772 166.762 456.06C154.705 451.675 142.648 447.291 131.687 441.811C155.801 394.678 161.282 332.2 141.552 270.818C121.822 209.437 81.2663 162.304 34.1339 138.19C39.6145 127.229 46.1911 116.268 53.8638 106.403C54.9599 109.691 57.1521 111.884 60.4404 114.076C110.861 143.671 153.609 195.187 174.435 260.954C195.261 324.528 191.973 391.39 167.858 445.099Z" fill="#E0E0E0"/>
<path d="M102.092 143.671C93.3235 151.343 85.6508 159.016 77.978 167.785C64.8248 155.728 49.4794 144.767 34.1339 137.094C39.6145 126.133 46.1911 115.172 53.8638 105.307C54.9599 108.595 57.1521 110.788 60.4404 112.98C75.7858 120.652 88.9391 131.613 102.092 143.671Z" fill="white"/>
<path d="M167.858 445.099C166.762 448.387 165.666 452.772 166.762 456.06C154.705 451.675 142.648 447.291 131.687 441.811C155.801 394.678 161.282 332.2 141.552 270.818C121.822 209.437 81.2663 162.304 34.1339 138.19C39.6145 127.229 46.1911 116.268 53.8638 106.403C54.9599 109.691 57.1521 111.884 60.4404 114.076C110.861 143.671 153.609 195.187 174.435 260.954C195.261 324.528 191.973 391.39 167.858 445.099Z" stroke="#45413C" stroke-width="1.0064" stroke-miterlimit="10" stroke-linecap="round" stroke-linejoin="round"/>
</svg>
