<svg width="56" height="50" viewBox="0 0 56 50" fill="none" xmlns="http://www.w3.org/2000/svg">
<path d="M46.6316 17.2338C46.6316 19.41 45.7671 21.4969 44.2284 23.0357C42.6896 24.5745 40.6026 25.439 38.4265 25.439C36.2503 25.439 34.1632 24.5745 32.6244 23.0357C31.0857 21.4969 30.2212 19.41 30.2212 17.2338C30.2212 16.1563 30.4335 15.0894 30.8458 14.0939C31.2582 13.0984 31.8625 12.1938 32.6244 11.4319C33.3864 10.67 34.2909 10.0655 35.2864 9.65318C36.2819 9.24083 37.3489 9.02866 38.4265 9.02866C39.504 9.02866 40.5709 9.24083 41.5664 9.65318C42.5619 10.0655 43.4664 10.67 44.2284 11.4319C44.9903 12.1938 45.5947 13.0984 46.0071 14.0939C46.4194 15.0894 46.6316 16.1563 46.6316 17.2338Z" fill="#FFD158"/>
<path fill-rule="evenodd" clip-rule="evenodd" d="M38.4803 0.000124215C38.3473 0.00219848 38.2159 0.0304014 38.0938 0.0832294C37.9717 0.136057 37.8612 0.212396 37.7686 0.307935C37.676 0.403473 37.6031 0.516405 37.5541 0.640108C37.5052 0.763812 37.481 0.895887 37.483 1.02892V4.04049C37.4812 4.17469 37.506 4.30788 37.5561 4.4324C37.6062 4.55692 37.6805 4.67026 37.7748 4.76581C37.869 4.86136 37.9814 4.93725 38.1052 4.98903C38.229 5.04081 38.3619 5.06744 38.4961 5.06744C38.6303 5.06744 38.7632 5.04081 38.887 4.98903C39.0109 4.93725 39.1231 4.86136 39.2174 4.76581C39.3116 4.67026 39.386 4.55692 39.4361 4.4324C39.4862 4.30788 39.5111 4.17469 39.5092 4.04049V1.02892C39.5113 0.893223 39.4861 0.758474 39.4351 0.632688C39.3842 0.506902 39.3085 0.392645 39.2125 0.296681C39.1166 0.200717 39.0023 0.125031 38.8765 0.0740779C38.7507 0.0231252 38.616 -0.00199941 38.4803 0.000124215Z" fill="#FFD158"/>
<path fill-rule="evenodd" clip-rule="evenodd" d="M55.7202 17.2077C55.7181 17.0747 55.6898 16.9434 55.6369 16.8212C55.5841 16.6991 55.5078 16.5887 55.4122 16.4961C55.3167 16.4035 55.2039 16.3306 55.0802 16.2816C54.9565 16.2326 54.8243 16.2085 54.6912 16.2106H51.6797C51.5454 16.2086 51.412 16.2333 51.2874 16.2833C51.1628 16.3333 51.0493 16.4077 50.9536 16.5019C50.8579 16.5962 50.782 16.7085 50.7301 16.8324C50.6783 16.9563 50.6516 17.0892 50.6516 17.2235C50.6516 17.3578 50.6783 17.4908 50.7301 17.6147C50.782 17.7386 50.8579 17.8509 50.9536 17.9451C51.0493 18.0394 51.1628 18.1138 51.2874 18.1638C51.412 18.2138 51.5454 18.2386 51.6797 18.2366H54.6912C54.8269 18.2388 54.9617 18.2135 55.0875 18.1626C55.2133 18.1116 55.3275 18.0359 55.4235 17.94C55.5194 17.844 55.5951 17.7297 55.6461 17.6039C55.697 17.4782 55.7223 17.3434 55.7202 17.2077Z" fill="#FFD158"/>
<path fill-rule="evenodd" clip-rule="evenodd" d="M27.3517 5.06868C27.1507 5.06953 26.9545 5.13019 26.7881 5.2428C26.6217 5.35542 26.4926 5.51491 26.4171 5.70112C26.3416 5.88733 26.3231 6.09183 26.3641 6.28854C26.405 6.48526 26.5036 6.66529 26.6473 6.80585L28.6536 8.81212C28.747 8.90944 28.8587 8.98711 28.9825 9.04066C29.1062 9.09421 29.2394 9.1226 29.3743 9.12401C29.5091 9.12543 29.6428 9.09989 29.7677 9.04895C29.8925 8.998 30.006 8.92267 30.1013 8.82733C30.1967 8.732 30.272 8.61851 30.3229 8.49368C30.3739 8.36884 30.3994 8.23511 30.398 8.10029C30.3966 7.96546 30.3683 7.83225 30.3148 7.7085C30.2612 7.58476 30.1834 7.473 30.0861 7.37967L28.0798 5.37352C27.985 5.27659 27.8717 5.19968 27.7467 5.14733C27.6216 5.09499 27.4872 5.06817 27.3517 5.06868Z" fill="#FFD158"/>
<path fill-rule="evenodd" clip-rule="evenodd" d="M50.3459 5.35259C50.2505 5.25969 50.1377 5.18643 50.014 5.13716C49.8902 5.08789 49.758 5.06355 49.6248 5.06543C49.4916 5.06731 49.3601 5.09542 49.2378 5.14817C49.1155 5.20091 49.0048 5.27731 48.9121 5.37287L46.9062 7.37865C46.812 7.47279 46.7373 7.58459 46.6863 7.70761C46.6353 7.83062 46.6091 7.9624 46.6091 8.09556C46.6091 8.22871 46.6353 8.3606 46.6863 8.48363C46.7373 8.60665 46.8119 8.71843 46.9061 8.81258C47.0002 8.90674 47.112 8.98139 47.235 9.03234C47.358 9.0833 47.4899 9.10952 47.6231 9.10951C47.7562 9.10951 47.8881 9.08331 48.0112 9.03234C48.1342 8.98138 48.2458 8.90663 48.34 8.81246L50.346 6.80668C50.4435 6.71223 50.5209 6.59911 50.5738 6.47414C50.6267 6.34917 50.654 6.21484 50.654 6.07914C50.6539 5.94344 50.6266 5.80923 50.5737 5.68427C50.5208 5.55931 50.4433 5.44703 50.3459 5.35259Z" fill="#FFD158"/>
<path fill-rule="evenodd" clip-rule="evenodd" d="M47.6134 25.3175C47.4116 25.3175 47.2144 25.3778 47.0471 25.4907C46.8798 25.6035 46.7499 25.7636 46.6743 25.9507C46.5986 26.1378 46.5805 26.3432 46.6223 26.5406C46.6641 26.738 46.764 26.9185 46.909 27.0588L48.9153 29.065C49.0086 29.1624 49.1205 29.24 49.2442 29.2936C49.368 29.3471 49.5011 29.3754 49.6359 29.3768C49.7707 29.3782 49.9046 29.3527 50.0294 29.3017C50.1542 29.2508 50.2676 29.1755 50.3629 29.0801C50.4583 28.9848 50.5336 28.8714 50.5845 28.7466C50.6355 28.6218 50.661 28.488 50.6596 28.3532C50.6582 28.2184 50.6299 28.0852 50.5764 27.9614C50.5228 27.8377 50.4452 27.7259 50.3478 27.6326L48.3414 25.6263C48.247 25.5287 48.1339 25.4509 48.0088 25.3979C47.8837 25.3449 47.7493 25.3175 47.6134 25.3175Z" fill="#FFD158"/>
<path d="M25.3267 12.1583C22.7799 12.1605 20.2884 12.9011 18.1539 14.2904C16.0194 15.6796 14.3335 17.6579 13.3004 19.9857C12.1351 19.5017 10.886 19.2516 9.62412 19.2496C7.07165 19.2496 4.62377 20.2636 2.8189 22.0684C1.01403 23.8732 1.02104e-06 26.3211 0 28.8735C1.02104e-06 31.4259 1.01403 33.8738 2.8189 35.6786C4.62377 37.4834 7.07165 38.4974 9.62412 38.4974H25.3267C27.0562 38.4974 28.7687 38.1567 30.3665 37.4949C31.9644 36.8331 33.4162 35.863 34.6391 34.6401C35.8621 33.4172 36.8322 31.9654 37.494 30.3676C38.1559 28.7698 38.4965 27.0574 38.4965 25.3279C38.4965 23.5985 38.1559 21.886 37.494 20.2882C36.8322 18.6904 35.8621 17.2386 34.6391 16.0157C33.4162 14.7928 31.9644 13.8226 30.3665 13.1608C28.7687 12.499 27.0562 12.1583 25.3267 12.1583Z" fill="#0094FF"/>
<path d="M32.4184 46.9607C32.4184 48.6392 31.0576 50 29.3791 50C27.7006 50 26.3398 48.6392 26.3398 46.9607C26.3398 45.2822 29.3791 41.8953 29.3791 41.8953C29.3791 41.8953 32.4184 45.2822 32.4184 46.9607Z" fill="#0094FF"/>
<path d="M12.1567 46.9607C12.1567 48.6392 10.796 50 9.1174 50C7.43885 50 6.07812 48.6392 6.07812 46.9607C6.07812 45.2822 9.1174 41.8953 9.1174 41.8953C9.1174 41.8953 12.1567 45.2822 12.1567 46.9607Z" fill="#0094FF"/>
<path d="M19.2484 33.1999C19.2484 33.1999 16.3267 36.4763 15.8608 38.4988H22.6359C22.17 36.4763 19.2484 33.1999 19.2484 33.1999Z" fill="#D5E1DA"/>
<path d="M31.5311 12.8023C31.3849 13.0316 31.2502 13.268 31.1274 13.5106C33.3373 14.5949 35.199 16.2767 36.5015 18.3654C37.8039 20.454 38.4949 22.866 38.4961 25.3274C38.4949 25.3632 38.4935 25.399 38.492 25.4348C38.7857 25.4309 39.079 25.4113 39.3706 25.376C39.381 25.1968 39.3878 25.0173 39.3908 24.8378C39.3876 22.2861 38.6429 19.7904 37.2477 17.6539C35.8524 15.5174 33.8662 13.8312 31.5311 12.8023Z" fill="#ECC355"/>
<path d="M22.2875 38.8561C22.2875 40.5346 20.9268 41.8954 19.2483 41.8954C17.5697 41.8954 16.209 40.5346 16.209 38.8561C16.209 37.1776 19.2483 33.7907 19.2483 33.7907C19.2483 33.7907 22.2875 37.1776 22.2875 38.8561Z" fill="#0094FF"/>
</svg>
